<svg version="1.1" id="Layer_1" xmlns="http://www.w3.org/2000/svg" xmlns:xlink="http://www.w3.org/1999/xlink" x="0px" y="0px"
	 width="100%" viewBox="0 0 1024 1024" enable-background="new 0 0 1024 1024" xml:space="preserve">
<path fill="#000000" opacity="1.000000" stroke="none" 
	d="
M553.000000,701.902710 
	C497.011230,701.937256 441.522461,701.960144 386.033691,702.011047 
	C346.511902,702.047363 316.762268,677.376343 310.042969,638.522583 
	C307.264801,622.458374 309.667908,606.842834 317.557922,592.563049 
	C331.572998,567.197632 346.108124,542.119751 360.412354,516.913940 
	C389.845428,465.049103 419.192902,413.135468 448.719788,361.324097 
	C476.803040,312.045898 548.310242,311.752777 576.662170,360.964508 
	C603.436707,407.438324 629.665833,454.226227 656.172119,500.854767 
	C672.799744,530.105164 689.222107,559.476990 706.224609,588.508423 
	C733.079285,634.362244 706.744995,691.946838 654.419617,700.960266 
	C649.853394,701.746948 645.132446,701.883606 640.482300,701.894897 
	C611.488403,701.965332 582.494141,701.914001 553.000000,701.902710 
M600.938660,459.492981 
	C585.265198,432.000305 569.751831,404.414795 553.877014,377.038940 
	C534.894165,344.303314 491.174194,344.275085 472.116333,376.929749 
	C460.950806,396.061310 450.076874,415.363617 439.134033,434.624542 
	C407.211609,490.812439 375.157654,546.926514 343.480743,603.252686 
	C325.638153,634.979370 346.241638,674.440979 384.837799,673.997681 
	C405.662140,673.758484 426.491730,673.981262 447.318939,673.976135 
	C512.299866,673.960266 577.280823,673.989441 642.261658,673.883057 
	C664.164429,673.847168 681.957581,660.287354 687.272705,639.781189 
	C690.940857,625.629456 687.983521,612.620911 680.776367,600.027771 
	C654.136780,553.480164 627.773987,506.774139 600.938660,459.492981 
z"/>
<path fill="#000000" opacity="1.000000" stroke="none" 
	d="
M451.398560,604.846375 
	C450.298615,617.492920 439.214203,626.753235 427.684387,625.099365 
	C414.718475,623.239563 405.705536,611.416809 408.181580,599.516663 
	C410.888336,586.507629 423.377686,578.039917 435.503632,582.626587 
	C442.432770,585.247681 446.654572,583.447266 451.875366,579.753845 
	C463.567413,571.482300 475.552094,563.619812 487.523010,555.751038 
	C489.900787,554.188049 490.915497,552.544617 490.760284,549.665405 
	C490.237000,539.958618 494.068176,532.466431 502.821899,527.898682 
	C505.298187,526.606445 505.911469,524.814514 505.903595,522.251099 
	C505.858124,507.418793 505.842560,492.585327 505.998260,477.754150 
	C506.031281,474.609436 504.635040,473.023010 502.114624,471.497467 
	C493.845337,466.492218 489.699982,457.601196 491.380341,449.153625 
	C493.378357,439.109039 499.492981,433.124207 509.680878,431.241608 
	C519.153503,429.491150 529.632263,435.338470 533.153809,444.339813 
	C537.002258,454.176666 533.810364,465.746582 525.094177,470.664886 
	C520.805969,473.084656 519.657166,475.753815 519.791626,480.471161 
	C520.175964,493.947845 520.017639,507.442780 519.901184,520.929077 
	C519.871033,524.421021 520.752502,526.698120 524.093872,528.525085 
	C532.442322,533.089722 535.562439,540.766663 534.848022,549.918823 
	C534.638916,552.598633 535.458313,553.859802 537.425232,555.171997 
	C551.561890,564.603210 565.681702,574.060181 579.740723,583.606567 
	C582.055908,585.178589 583.875916,585.331055 586.523315,584.046570 
	C596.234436,579.334656 606.594116,581.624146 613.207947,589.536560 
	C619.386475,596.928223 619.673401,607.845947 613.903748,616.010742 
	C608.357666,623.859070 597.547485,626.947876 588.043579,623.399841 
	C578.815369,619.954712 573.475159,611.221252 574.514465,600.791809 
	C574.796021,597.966980 574.190002,596.148926 571.745972,594.519714 
	C557.606873,585.094971 543.543701,575.555603 529.510620,565.973389 
	C527.758179,564.776733 526.408447,564.638916 524.548828,565.748169 
	C516.835876,570.349121 509.013947,570.134033 501.338654,565.664612 
	C499.415161,564.544556 498.025391,564.871155 496.351044,566.010864 
	C482.166321,575.666321 467.990387,585.336182 453.709656,594.848328 
	C449.767365,597.474182 451.990448,601.178589 451.398560,604.846375 
z"/>
</svg>